<svg width="74" height="74" viewBox="0 0 74 74" fill="none" xmlns="http://www.w3.org/2000/svg">
<g clip-path="url(#clip0_3_725)">
<path d="M32.6754 39.725C35.7489 37.6064 37.5837 34.1159 37.5837 30.388C37.5837 27.2623 36.3388 24.3513 34.0782 22.1918C31.8189 20.033 28.8512 18.9229 25.7195 19.066C19.8555 19.3338 15.1131 24.1421 14.9231 30.0126C14.8282 32.9418 15.8482 35.7559 17.7952 37.9364C18.3753 38.5861 18.5242 39.5036 18.1835 40.3304C16.323 44.8482 17.111 49.9825 20.2399 53.7296C24.871 59.277 33.1547 60.0243 38.7057 55.3946C38.731 55.3735 38.7554 55.3511 38.7787 55.3279C38.8164 55.29 38.8595 55.2822 38.8889 55.2822C38.9184 55.2822 38.9615 55.2901 38.9994 55.3277L42.7819 59.1076C43.5204 59.8455 44.502 60.2519 45.546 60.2519H45.5473C46.592 60.2515 47.5738 59.8445 48.3119 59.1055V59.1056C49.8353 57.5809 49.8349 55.1008 48.3109 53.5767L41.4143 46.6803L41.5052 46.5894C42.0264 46.3072 42.5529 46.1134 43.1621 45.8904C44.7852 45.2951 47.0077 44.4795 49.5928 41.7551C52.1792 39.0292 52.8767 36.7651 53.3872 35.1081C53.8138 33.7251 54.0958 32.8112 55.517 31.313C56.9383 29.8159 57.8358 29.4865 59.1986 28.9865C60.2634 28.5969 61.5886 28.1122 63.0874 27.069C63.2205 26.9762 63.3497 26.9967 63.4147 27.0172C63.4895 27.0408 63.5886 27.0967 63.6377 27.23C64.7609 30.2816 65.3439 33.4902 65.3702 36.7667C65.4257 43.6285 63.0212 50.2612 58.5995 55.4433C58.2109 55.8988 58.2651 56.583 58.7205 56.9715C58.9246 57.1456 59.1748 57.2309 59.4235 57.2309C59.7299 57.2309 60.0343 57.1018 60.2486 56.8505C65.0091 51.2713 67.5979 44.1326 67.5382 36.7492C67.5097 33.2224 66.8819 29.7677 65.6722 26.481C65.4007 25.7435 64.8152 25.1853 64.066 24.9493C63.31 24.7111 62.502 24.8352 61.849 25.2896C60.5805 26.1724 59.4505 26.5858 58.4475 26.9528C56.9816 27.4907 55.7154 27.9554 53.9445 29.8207C52.174 31.6873 51.7761 32.9762 51.3141 34.4736C50.8185 36.0822 50.257 37.9055 48.0203 40.2629C46.4498 41.9181 45.0994 42.7343 43.8855 43.2751C43.9299 43.0408 43.9532 42.8009 43.9532 42.5572C43.9532 41.7609 43.7105 41.0021 43.2617 40.3632C44.0913 39.9266 44.9329 39.3174 45.9231 38.2736C47.6968 36.405 48.0933 35.1147 48.5529 33.6185C49.0486 32.0109 49.6103 30.189 51.8476 27.8309C54.0871 25.4709 55.8779 24.816 57.4585 24.238C58.7503 23.7644 59.9158 23.1 61.0219 22.2066C62.0837 21.3491 62.2755 19.8227 61.4585 18.7315C56.1025 11.5777 47.9467 7.13059 39.0822 6.53064C38.4857 6.48873 37.9678 6.94155 37.9275 7.53889C37.887 8.13624 38.3384 8.65323 38.9358 8.69355C47.1696 9.25087 54.7462 13.3832 59.7231 20.0309C59.8357 20.1813 59.8074 20.4009 59.6598 20.52C58.7415 21.2616 57.7773 21.8121 56.7128 22.2022C55.0889 22.796 52.8645 23.6095 50.2748 26.3388C47.688 29.0649 46.9903 31.3277 46.4796 32.9843C46.0547 34.3676 45.7738 35.2817 44.3503 36.7812C43.1595 38.0367 42.3301 38.4751 41.2377 38.8952C39.93 38.5004 38.4503 38.8181 37.417 39.8496L34.8827 42.3855L34.8685 42.3997C34.5654 42.7004 34.1587 42.8544 33.7267 42.8367C33.2843 42.8175 32.8666 42.6127 32.5806 42.2748L32.3755 42.0326C32.0837 41.6879 31.9558 41.2515 32.0153 40.8038C32.0743 40.3611 32.3087 39.9778 32.6754 39.725ZM30.721 43.4341C31.4609 44.3361 32.4408 44.9514 33.6326 45.0031C34.6618 45.0473 35.6688 44.66 36.399 43.9356L38.9498 41.3833C39.5977 40.7363 40.6514 40.7358 41.2983 41.3826C42.954 43.0384 39.842 45.1884 38.7665 46.2623C36.5844 48.4446 33.6834 49.6462 30.5975 49.6462C29.9988 49.6462 29.5135 50.1315 29.5135 50.7302C29.5135 51.329 29.9988 51.8142 30.5975 51.8142C34.0645 51.8142 37.3348 50.5362 39.8719 48.2043L46.7777 55.1102C47.4568 55.7891 47.4569 56.8943 46.7782 57.5736C46.4494 57.9027 46.0119 58.0841 45.5465 58.0842C45.5462 58.0842 45.546 58.0842 45.5459 58.0842C45.0807 58.0842 44.6433 57.9031 44.3142 57.5744L40.5315 53.7945C40.0926 53.356 39.5094 53.1145 38.8889 53.1145C38.8885 53.1145 38.8879 53.1145 38.8873 53.1145C38.2858 53.1148 37.7192 53.3423 37.2855 53.7561C32.6523 57.5912 25.7607 56.9605 21.9039 52.3402C19.2924 49.2129 18.6349 44.9274 20.188 41.1561C20.8477 39.5543 20.5504 37.7673 19.4122 36.4925C17.8378 34.7293 17.013 32.4529 17.0899 30.0827C17.2435 25.3359 21.0775 21.4481 25.8184 21.2316C28.3516 21.1175 30.7536 22.0137 32.5806 23.7592C34.4089 25.5059 35.4159 27.86 35.4159 30.3878C35.4159 33.4028 33.9315 36.2262 31.445 37.94C30.5806 38.5358 30.0052 39.4754 29.8663 40.518C29.727 41.565 30.0384 42.6279 30.721 43.4341Z" fill="#2F73F2"/>
<path d="M37 0C31.7495 0 26.6725 1.08268 21.9102 3.21828C17.3114 5.28045 13.2388 8.21357 9.80529 11.936C9.39945 12.3761 9.42705 13.0619 9.86715 13.4677C10.3072 13.8737 10.9929 13.8458 11.3989 13.4059C14.6325 9.89996 18.4675 7.13796 22.7972 5.19648C27.2787 3.18691 32.0573 2.16797 37 2.16797C56.2065 2.16797 71.832 17.7935 71.832 37C71.832 56.2065 56.2065 71.832 37 71.832C17.7935 71.832 2.16797 56.2065 2.16797 37C2.16797 29.7862 4.3634 22.8605 8.51723 16.9716C8.86222 16.4823 8.74544 15.8061 8.2562 15.4609C7.76711 15.1159 7.0907 15.233 6.74556 15.722C2.33259 21.9784 0 29.3364 0 37C0 57.4019 16.5981 74 37 74C57.4019 74 74 57.4019 74 37C74 16.5981 57.4019 0 37 0Z" fill="#2F73F2"/>
<path d="M34.1781 6.59627C26.9648 7.29898 20.1333 10.7017 14.9417 16.1775C9.71833 21.6871 6.71208 28.7239 6.4765 35.9918C6.33717 40.2942 7.0789 44.4804 8.68118 48.4347C10.2245 52.2431 12.4877 55.6558 15.4084 58.5782C18.3289 61.5007 21.7404 63.7662 25.5478 65.3117C29.1942 66.7918 33.0377 67.5399 36.9885 67.5399C37.3211 67.5399 37.6549 67.5346 37.9888 67.524C44.9829 67.3016 51.4799 64.8078 56.7776 60.3125C57.234 59.9251 57.2901 59.2411 56.9027 58.7846C56.5154 58.3282 55.8313 58.272 55.3749 58.6595C50.4547 62.8344 44.4188 65.1504 37.9198 65.3572C33.9221 65.4838 30.0339 64.7932 26.3631 63.303C22.826 61.8671 19.6562 59.7618 16.9417 57.0458C14.2276 54.3293 12.1243 51.1584 10.6907 47.6205C9.20279 43.9485 8.51395 40.0596 8.64345 36.0619C8.86169 29.325 11.6572 22.7929 16.5151 17.669C21.3473 12.5719 27.6948 9.40582 34.3882 8.75384C34.9841 8.69588 35.42 8.16574 35.3621 7.56984C35.3041 6.97422 34.775 6.54121 34.1781 6.59627Z" fill="#2F73F2"/>
</g>
<defs>
<clipPath id="clip0_3_725">
<rect width="74" height="74" fill="white"/>
</clipPath>
</defs>
</svg>
