<svg width="80" height="53" viewBox="0 0 80 53" fill="none" xmlns="http://www.w3.org/2000/svg">
<path d="M8.504 52V12.76L0.08 14.704V7.144L12.608 1.6H18.512V52H8.504ZM40.2853 52.864C37.0213 52.864 34.0213 52.264 31.2853 51.064C28.5493 49.864 26.3653 48.04 24.7333 45.592C23.1013 43.144 22.2373 40.048 22.1413 36.304H31.6453C31.6933 37.888 32.0533 39.328 32.7253 40.624C33.4453 41.872 34.4293 42.88 35.6773 43.648C36.9733 44.368 38.5093 44.728 40.2853 44.728C41.9653 44.728 43.4053 44.392 44.6053 43.72C45.8053 43.048 46.7173 42.16 47.3413 41.056C47.9653 39.952 48.2773 38.68 48.2773 37.24C48.2773 35.512 47.8693 34.096 47.0533 32.992C46.2373 31.84 45.0853 30.976 43.5973 30.4C42.1573 29.776 40.4773 29.464 38.5573 29.464H34.8133V21.472H38.5573C40.9093 21.472 42.8773 20.944 44.4613 19.888C46.0453 18.784 46.8373 17.128 46.8373 14.92C46.8373 13.144 46.2373 11.704 45.0373 10.6C43.8853 9.496 42.2773 8.944 40.2133 8.944C37.9573 8.944 36.1813 9.616 34.8853 10.96C33.6373 12.304 32.9413 13.96 32.7973 15.928H23.3653C23.5093 12.76 24.3013 10.048 25.7413 7.792C27.1813 5.488 29.1253 3.736 31.5733 2.536C34.0693 1.336 36.9733 0.735999 40.2853 0.735999C43.7413 0.735999 46.6693 1.36 49.0693 2.608C51.4693 3.808 53.2933 5.44 54.5413 7.504C55.7893 9.52 56.4133 11.752 56.4133 14.2C56.4133 16.12 56.0293 17.848 55.2613 19.384C54.5413 20.872 53.5573 22.12 52.3093 23.128C51.1093 24.136 49.7653 24.88 48.2773 25.36C50.1493 25.696 51.7813 26.416 53.1733 27.52C54.6133 28.624 55.7413 30.04 56.5573 31.768C57.3733 33.448 57.7813 35.392 57.7813 37.6C57.7813 40.336 57.1093 42.88 55.7653 45.232C54.4213 47.536 52.4533 49.384 49.8613 50.776C47.2693 52.168 44.0773 52.864 40.2853 52.864ZM67.4522 49.56V31.32H72.0522V49.56H67.4522ZM59.9722 42.68V38.16H79.4922V42.68H59.9722Z" fill="white"/>
</svg>
