<svg width="49" height="74" viewBox="0 0 49 74" fill="none" xmlns="http://www.w3.org/2000/svg">
<path d="M43.5479 56.4308C43.084 56.0449 42.3909 56.1034 41.9999 56.5614C40.1394 58.7402 37.418 59.99 34.522 59.99C33.3027 59.99 32.3107 60.9688 32.3107 62.1718V71.832H24.0986C23.4919 71.832 23 72.3174 23 72.916C23 73.5147 23.4919 74 24.0986 74H32.6769C33.6866 74 34.508 73.1896 34.508 72.1934V62.1717C34.508 62.1665 34.5167 62.1578 34.5334 62.1578C38.0675 62.1578 41.4014 60.6271 43.6804 57.9582C44.0712 57.5003 44.012 56.8164 43.5479 56.4308Z" fill="#2F73F2"/>
<path d="M44.5927 44.0082C47.4018 41.6759 48.88 38.9325 48.88 36.0231C48.88 33.4 47.6559 30.8803 45.3307 28.6916C46.0473 27.2119 46.4462 25.5926 46.486 23.9219C46.5625 20.7154 45.3553 17.6876 43.087 15.3963C40.8181 13.1045 37.7805 11.8423 34.5225 11.8423C34.5172 11.8423 34.5084 11.8336 34.5084 11.8284V1.80664C34.5084 0.810387 33.6871 0 32.6774 0H16.3236C15.3139 0 14.4925 0.810387 14.4925 1.80664V11.8283C14.4925 11.8335 14.4837 11.8422 14.467 11.8422C11.4499 11.8422 8.56885 12.9542 6.35444 14.9734C5.90884 15.3797 5.88144 16.0655 6.29336 16.5052C6.70513 16.9448 7.40019 16.972 7.8458 16.5654C9.65298 14.9176 12.0045 14.0101 14.4785 14.0101C15.6978 14.0101 16.6898 13.0314 16.6898 11.8283V2.16797H32.3112V11.8283C32.3112 13.0314 33.3032 14.0101 34.5339 14.0101C37.184 14.0101 39.6634 15.0404 41.5152 16.911C43.3665 18.7811 44.3518 21.2529 44.2894 23.8708C44.2309 26.3262 43.2224 28.6491 41.4495 30.4114C39.6766 32.1738 37.3303 33.186 34.8426 33.2616C31.7402 33.3562 28.8514 32.0401 26.9135 29.6522C26.3214 28.9227 25.4419 28.5043 24.5005 28.5043C23.559 28.5043 22.6795 28.9227 22.0874 29.6522C20.1495 32.0401 17.2618 33.3575 14.1584 33.2616C11.6707 33.1861 9.32427 32.174 7.55137 30.4114C5.77861 28.649 4.77007 26.3261 4.71162 23.8708C4.68042 22.56 4.91069 21.2848 5.39614 20.0809C5.62041 19.5246 5.34517 18.8943 4.78149 18.673C4.21724 18.4516 3.57886 18.7234 3.35459 19.2795C2.75928 20.7558 2.47686 22.3178 2.51509 23.9217C2.55493 25.5923 2.95381 27.2118 3.67041 28.6913C1.34526 30.88 0.121094 33.3997 0.121094 36.0228C0.121094 38.9322 1.59927 41.6757 4.4084 44.0079C3.22861 45.8138 2.56694 47.902 2.51509 50.0779C2.43877 53.2845 3.6458 56.3123 5.91411 58.6035C8.18301 60.8954 11.2205 62.1575 14.4786 62.1575C14.4839 62.1575 14.4927 62.1662 14.4927 62.1714V72.1934C14.4927 73.1896 15.314 74 16.3237 74H19.311C19.9177 74 20.4096 73.5147 20.4096 72.916C20.4096 72.3174 19.9177 71.832 19.311 71.832H16.6899V62.1717C16.6899 60.9686 15.6979 59.9899 14.4672 59.9899C11.8171 59.9899 9.33774 58.9596 7.48589 57.089C5.63462 55.2189 4.64936 52.7471 4.71177 50.1292C4.77021 47.6738 5.77876 45.3509 7.55151 43.5886C9.32441 41.8262 11.6708 40.814 14.1585 40.7384C17.2606 40.6428 20.1496 41.9599 22.0876 44.3478C22.6797 45.0773 23.5592 45.4957 24.5006 45.4957C25.4421 45.4957 26.3216 45.0773 26.9137 44.3478C28.8515 41.9599 31.7424 40.6454 34.8427 40.7384C37.3305 40.8139 39.6768 41.826 41.4496 43.5886C43.2224 45.351 44.2309 47.6739 44.2894 50.1292C44.3109 51.0318 44.2066 51.9269 43.9795 52.7896C43.827 53.369 44.1795 53.9607 44.7667 54.1112C45.3536 54.2617 45.9537 53.9139 46.1062 53.3345C46.3844 52.2772 46.5121 51.1817 46.4859 50.0783C46.4342 47.9023 45.7725 45.8141 44.5927 44.0082ZM34.9101 38.5713C31.1128 38.4554 27.5721 40.0677 25.1983 42.9926C24.9618 43.2842 24.6596 43.3276 24.5005 43.3276C24.3414 43.3276 24.0392 43.2841 23.8026 42.9926C21.4289 40.0675 17.888 38.4573 14.0909 38.5713C11.0389 38.664 8.1625 39.9033 5.99189 42.0612C5.91367 42.139 5.83926 42.2196 5.76353 42.2991C4.04453 40.8532 2.31821 38.728 2.31821 36.023C2.31821 34.1406 3.18584 32.2868 4.83569 30.6064C5.18506 31.0736 5.57017 31.5194 5.99175 31.9385C8.16235 34.0964 11.0386 35.3357 14.0907 35.4284C14.2182 35.4323 14.3449 35.4341 14.4717 35.4341C18.1248 35.434 21.5084 33.8339 23.8025 31.0072C24.0391 30.7155 24.3413 30.6721 24.5003 30.6721C24.6594 30.6721 24.9616 30.7156 25.1982 31.0072C27.5721 33.9323 31.1138 35.5427 34.91 35.4284C37.962 35.3357 40.8383 34.0964 43.0089 31.9385C43.4305 31.5194 43.8156 31.0736 44.165 30.6062C45.8148 32.2867 46.6825 34.1403 46.6825 36.0228C46.6825 38.7279 44.9561 40.8531 43.2372 42.299C43.1614 42.2195 43.087 42.1388 43.0089 42.0611C40.8385 39.9033 37.9622 38.664 34.9101 38.5713Z" fill="#2F73F2"/>
<path d="M11.2441 46.8809C11.2441 46.2822 10.7522 45.7969 10.1455 45.7969C9.53877 45.7969 9.04688 46.2822 9.04688 46.8809C9.04688 47.4795 9.53877 47.9648 10.1455 47.9648C10.7522 47.9648 11.2441 47.4795 11.2441 46.8809Z" fill="#2F73F2"/>
<path d="M10.1455 49.8507C9.53877 49.8507 9.04688 50.336 9.04688 50.9347C9.04688 51.5333 9.53877 52.0187 10.1455 52.0187C10.7522 52.0187 11.2441 51.5333 11.2441 50.9347C11.2441 50.336 10.7522 49.8507 10.1455 49.8507Z" fill="#2F73F2"/>
<path d="M13.0742 47.9648C13.0742 48.5635 13.5661 49.0488 14.1729 49.0488C14.7796 49.0488 15.2715 48.5635 15.2715 47.9648C15.2715 47.3662 14.7796 46.8809 14.1729 46.8809C13.5661 46.8809 13.0742 47.3662 13.0742 47.9648Z" fill="#2F73F2"/>
<path d="M9.04688 27.734C9.04688 28.3327 9.53877 28.818 10.1455 28.818C10.7522 28.818 11.2441 28.3327 11.2441 27.734C11.2441 27.1354 10.7522 26.65 10.1455 26.65C9.53877 26.65 9.04688 27.1354 9.04688 27.734Z" fill="#2F73F2"/>
<path d="M10.1455 24.7642C10.7522 24.7642 11.2441 24.2788 11.2441 23.6802C11.2441 23.0815 10.7522 22.5962 10.1455 22.5962C9.53877 22.5962 9.04688 23.0815 9.04688 23.6802C9.04688 24.279 9.53877 24.7642 10.1455 24.7642Z" fill="#2F73F2"/>
<path d="M15.2715 26.65C15.2715 26.0514 14.7796 25.566 14.1729 25.566C13.5661 25.566 13.0742 26.0514 13.0742 26.65C13.0742 27.2487 13.5661 27.734 14.1729 27.734C14.7796 27.734 15.2715 27.2487 15.2715 26.65Z" fill="#2F73F2"/>
</svg>
