<svg width="47" height="47" viewBox="0 0 47 47" fill="none" xmlns="http://www.w3.org/2000/svg">
<g clip-path="url(#clip0_3_153)">
<path d="M23.4998 7.66323C24.0617 7.66323 24.5215 7.20345 24.5215 6.64149V6.13063C24.5215 5.56867 24.0617 5.10889 23.4998 5.10889C22.9378 5.10889 22.478 5.56867 22.478 6.13063V6.64149C22.478 7.20345 22.9378 7.66323 23.4998 7.66323Z" fill="white"/>
<path d="M23.4998 39.3369C22.9378 39.3369 22.478 39.7967 22.478 40.3587V40.8695C22.478 41.4315 22.9378 41.8913 23.4998 41.8913C24.0617 41.8913 24.5215 41.4315 24.5215 40.8695V40.3587C24.5215 39.7967 24.0617 39.3369 23.4998 39.3369Z" fill="white"/>
<path d="M6.64149 22.478H6.13063C5.56867 22.478 5.10889 22.9378 5.10889 23.4998C5.10889 24.0617 5.56867 24.5215 6.13063 24.5215H6.64149C7.20345 24.5215 7.66323 24.0617 7.66323 23.4998C7.66323 22.9378 7.20345 22.478 6.64149 22.478Z" fill="white"/>
<path d="M40.8695 22.478H40.3587C39.7967 22.478 39.3369 22.9378 39.3369 23.4998C39.3369 24.0617 39.7967 24.5215 40.3587 24.5215H40.8695C41.4315 24.5215 41.8913 24.0617 41.8913 23.4998C41.8913 22.9378 41.4315 22.478 40.8695 22.478Z" fill="white"/>
<path d="M11.9542 10.5238C11.5455 10.1151 10.9325 10.1151 10.5238 10.5238C10.1151 10.9325 10.1151 11.5455 10.5238 11.9542L10.8814 12.3119C11.0858 12.5162 11.3412 12.6184 11.5966 12.6184C11.8521 12.6184 12.1075 12.5162 12.3119 12.3119C12.7205 11.9032 12.7205 11.2901 12.3119 10.8814L11.9542 10.5238Z" fill="white"/>
<path d="M10.8814 34.6879L10.5238 35.0455C10.1151 35.4542 10.1151 36.0672 10.5238 36.4759C10.7282 36.6803 10.9836 36.7824 11.239 36.7824C11.4945 36.7824 11.7499 36.6803 11.9542 36.4759L12.3119 36.1183C12.7205 35.7096 12.7205 35.0966 12.3119 34.6879C11.9032 34.2792 11.2901 34.2792 10.8814 34.6879Z" fill="white"/>
<path d="M35.0455 10.5238L34.6879 10.8814C34.2792 11.2901 34.2792 11.9032 34.6879 12.3119C34.8922 12.5162 35.1477 12.6184 35.4031 12.6184C35.6585 12.6184 35.914 12.5162 36.1183 12.3119L36.4759 11.9542C36.8846 11.5455 36.8846 10.9325 36.4759 10.5238C36.0672 10.1151 35.4542 10.1151 35.0455 10.5238Z" fill="white"/>
<path d="M24.5215 23.0915V13.7937C24.5215 13.2318 24.0617 12.772 23.4998 12.772C22.9378 12.772 22.478 13.2318 22.478 13.7937V23.5002C22.478 23.7557 22.5802 24.0111 22.7845 24.2155L33.9726 35.4035C34.1769 35.6078 34.4324 35.71 34.6878 35.71C34.9432 35.71 35.1987 35.6078 35.403 35.4035C35.8117 34.9948 35.8117 34.3818 35.403 33.9731L24.5215 23.0915Z" fill="white"/>
<path d="M23.5 0C10.5239 0 0 10.5239 0 23.5C0 36.4761 10.5239 47 23.5 47C36.4761 47 47 36.4761 47 23.5C47 10.5239 36.4761 0 23.5 0ZM23.5 44.9565C11.6478 44.9565 2.04348 35.3522 2.04348 23.5C2.04348 11.6478 11.6478 2.04348 23.5 2.04348C35.3522 2.04348 44.9565 11.6478 44.9565 23.5C44.9565 35.3522 35.3522 44.9565 23.5 44.9565Z" fill="white"/>
</g>
<defs>
<clipPath id="clip0_3_153">
<rect width="47" height="47" fill="white"/>
</clipPath>
</defs>
</svg>
