<svg width="35" height="47" viewBox="0 0 35 47" fill="none" xmlns="http://www.w3.org/2000/svg">
<path d="M17.5002 0C7.92658 0 0.138184 7.7884 0.138184 17.362C0.138184 20.5137 1.55166 23.9034 1.61089 24.0464C2.06741 25.13 2.96819 26.8131 3.61773 27.7997L15.5219 45.8367C16.0091 46.5762 16.7301 47 17.5002 47C18.2703 47 18.9913 46.5762 19.4784 45.8378L31.3837 27.7997C32.0342 26.8131 32.934 25.13 33.3905 24.0464C33.4498 23.9044 34.8622 20.5148 34.8622 17.362C34.8622 7.7884 27.0738 0 17.5002 0ZM31.5073 23.2539C31.0998 24.2251 30.2613 25.7908 29.6781 26.6752L17.7729 44.7133C17.538 45.0697 17.4634 45.0697 17.2285 44.7133L5.3233 26.6752C4.74014 25.7908 3.90165 24.2241 3.49416 23.2528C3.4768 23.211 2.18077 20.0909 2.18077 17.362C2.18077 8.91488 9.05307 2.04259 17.5002 2.04259C25.9473 2.04259 32.8196 8.91488 32.8196 17.362C32.8196 20.095 31.5205 23.2232 31.5073 23.2539Z" fill="white"/>
<path d="M17.5003 8.17139C12.4316 8.17139 8.30859 12.2954 8.30859 17.363C8.30859 22.4307 12.4316 26.5547 17.5003 26.5547C22.5689 26.5547 26.6919 22.4307 26.6919 17.363C26.6919 12.2954 22.5689 8.17139 17.5003 8.17139ZM17.5003 24.5121C13.5591 24.5121 10.3512 21.3052 10.3512 17.363C10.3512 13.4208 13.5591 10.214 17.5003 10.214C21.4414 10.214 24.6493 13.4208 24.6493 17.363C24.6493 21.3052 21.4414 24.5121 17.5003 24.5121Z" fill="white"/>
</svg>
