<svg width="76" height="76" viewBox="0 0 76 76" fill="none" xmlns="http://www.w3.org/2000/svg">
<path d="M66.4702 29.5468H51.2413C47.0151 25.369 41.6145 22.3777 35.5845 21.1194C35.7061 16.1801 39.759 12.1986 44.7272 12.1986H49.4069C50.0219 12.1986 50.5202 11.7001 50.5202 11.0853C50.5202 10.4705 50.0219 9.97203 49.4069 9.97203H44.7272C38.6585 9.97203 33.685 14.7492 33.3686 20.7406C31.9898 20.555 30.5837 20.4574 29.1548 20.4574H28.6089C29.0723 11.9684 36.1244 5.20407 44.7271 5.20407H57.5479C58.2196 5.20407 58.7662 5.75062 58.7662 6.4223V8.75395C58.7662 9.42563 58.2196 9.97218 57.5479 9.97218H54.2587C53.6437 9.97218 53.1454 10.4706 53.1454 11.0855C53.1454 11.7003 53.6437 12.1987 54.2587 12.1987H57.5479C59.4475 12.1987 60.9927 10.6534 60.9927 8.75395V6.42215C60.9927 4.52259 59.4475 2.97736 57.5479 2.97736H44.7271C34.8962 2.97736 26.845 10.7399 26.3793 20.4572H21.1264C18.3839 20.4572 16.1527 18.226 16.1527 15.4837V3.44494C16.1529 1.54538 14.6076 0 12.7081 0H10.3766C8.47702 0 6.93164 1.54538 6.93164 3.44494V31.3838C6.93164 31.9987 7.42995 32.4971 8.04492 32.4971C8.6599 32.4971 9.1582 31.9987 9.1582 31.3838V3.44494C9.1582 2.77326 9.70475 2.22656 10.3766 2.22656H12.7081C13.3798 2.22656 13.9263 2.77311 13.9263 3.44494V15.4837C13.9263 18.1224 15.3541 20.4329 17.4768 21.6866L20.9615 27.0385L19.9649 37.35C19.7191 39.8935 18.5712 42.2716 16.733 44.0465L14.207 46.4853C13.7648 46.9123 13.7523 47.6171 14.1794 48.0595C14.3979 48.2857 14.689 48.3995 14.9804 48.3995C15.2587 48.3995 15.5375 48.2958 15.7536 48.0871L18.2794 45.6482C18.3103 45.6184 18.3392 45.5871 18.3698 45.5571L19.2525 51.9568C19.3296 52.5142 19.8067 52.9181 20.3539 52.9181C20.4047 52.9181 20.4559 52.9147 20.5074 52.9076C21.1166 52.8236 21.5423 52.2617 21.4582 51.6525L20.2864 43.1573C21.3313 41.474 21.9879 39.5622 22.1809 37.5642L22.9092 30.0298L28.6528 38.8508C30.3315 41.4289 32.6119 43.4865 35.2793 44.8764L38.5524 54.1933C38.7133 54.6514 39.1433 54.9379 39.6027 54.9379C39.725 54.9379 39.8497 54.9176 39.9717 54.8747C40.5517 54.6709 40.8569 54.0354 40.6531 53.4553L38.0446 46.0302C38.5067 46.1785 38.9763 46.3097 39.4537 46.421L43.8526 47.4463C43.9375 47.466 44.0226 47.4755 44.1063 47.4755C44.612 47.4755 45.0697 47.1285 45.1896 46.6147C45.329 46.0159 44.9569 45.4174 44.3579 45.2777L39.959 44.2525C36.0573 43.3432 32.7047 40.9932 30.5185 37.6359L30.2066 37.1567L40.3762 37.7753C40.3992 37.7766 40.4221 37.7773 40.4448 37.7773C41.0288 37.7773 41.5191 37.3224 41.555 36.7316C41.5922 36.118 41.1251 35.5901 40.5113 35.5529L36.4631 35.3066L39.6327 32.8997C40.1224 32.5279 40.2178 31.8295 39.846 31.3398C39.4742 30.8501 38.7762 30.7545 38.2861 31.1263L33.0544 35.0992L28.6944 34.8341L20.7771 22.6749C20.8929 22.6804 21.0093 22.6838 21.1264 22.6838H29.1548C45.2603 22.6838 58.363 35.7864 58.363 51.8918V53.2787C58.363 53.8935 58.8613 54.392 59.4763 54.392C60.0911 54.392 60.5896 53.8935 60.5896 53.2787V51.8918C60.5896 49.8888 60.399 47.9297 60.0392 46.0299H64.2414C65.6737 46.0299 66.8391 44.8645 66.8391 43.4322V41.1497C66.8391 39.7174 65.6737 38.552 64.2414 38.552H57.6143C57.3711 38.0353 57.1151 37.5257 56.8451 37.0248H66.4702C67.9025 37.0248 69.0679 35.8594 69.0679 34.4271V32.1446C69.0679 30.712 67.9025 29.5468 66.4702 29.5468ZM64.2414 40.7785C64.4461 40.7785 64.6125 40.945 64.6125 41.1495V43.4321C64.6125 43.6366 64.4461 43.8032 64.2414 43.8032H59.5327C59.2582 42.7732 58.9326 41.7642 58.5586 40.7785H64.2414ZM66.8413 34.427C66.8413 34.6315 66.6749 34.7981 66.4702 34.7981H55.5231C54.8379 33.7446 54.0914 32.7348 53.2887 31.7733H66.4702C66.6749 31.7733 66.8413 31.9399 66.8413 32.1444V34.427Z" fill="#2F73F2"/>
<path d="M6.93164 72.6602C6.93164 74.5018 8.42997 76 10.2715 76H12.8038C14.6453 76 16.1437 74.5018 16.1437 72.6602V64.8923C21.8361 70.5876 29.6969 74.1152 38.3662 74.1152H51.8367C56.6631 74.1152 60.5897 70.1886 60.5897 65.3621V58.1307C60.5897 57.5159 60.0913 57.0174 59.4764 57.0174C58.8615 57.0174 58.3632 57.5159 58.3632 58.1307V65.3621C58.3632 68.9608 55.4354 71.8886 51.8367 71.8886H38.3662C22.2609 71.8886 9.1582 58.7859 9.1582 42.6806V36.2357C9.1582 35.6209 8.6599 35.1224 8.04492 35.1224C7.42995 35.1224 6.93164 35.6209 6.93164 36.2357V72.6602ZM13.9171 72.6602C13.9171 73.2741 13.4178 73.7735 12.8038 73.7735H10.2715C9.65755 73.7735 9.1582 73.2741 9.1582 72.6602V54.2997C10.3361 57.2502 11.9493 59.981 13.9171 62.4141V72.6602Z" fill="#2F73F2"/>
</svg>
