<svg width="75" height="74" viewBox="0 0 75 74" fill="none" xmlns="http://www.w3.org/2000/svg">
<g clip-path="url(#clip0_3_709)">
<path d="M52.267 22.8295H50.803C47.0179 22.8295 43.9385 25.8679 43.9385 29.6026V35.0669C43.9385 35.6656 44.4302 36.1509 45.0371 36.1509C45.644 36.1509 46.1357 35.6656 46.1357 35.0669V29.6026C46.1357 27.0634 48.2294 24.9974 50.803 24.9974H52.267C63.5902 24.9974 72.8025 34.0869 72.8025 45.2591V66.7904C72.8025 69.3297 70.7088 71.3954 68.1352 71.3954H58.6799C58.073 71.3954 57.5813 71.8808 57.5813 72.4794C57.5813 73.0781 58.073 73.5634 58.6799 73.5634H68.1352C71.9204 73.5634 74.9998 70.5251 74.9998 66.7904V45.2593C74.9998 32.8914 64.802 22.8295 52.267 22.8295Z" fill="#2F73F2"/>
<path d="M58.1145 59.9729L57.7162 57.9372L61.8267 60.2651C63.4468 61.1828 65.5217 60.6289 66.4518 59.0304C66.9025 58.256 67.0206 57.3547 66.7841 56.4926C66.5479 55.6306 65.9854 54.911 65.2005 54.4662L56.6338 49.614L59.3309 48.8256C60.1985 48.5721 60.9142 48.0003 61.3459 47.2155C61.7776 46.4307 61.8738 45.5273 61.6169 44.6714C61.0863 42.904 59.197 41.8926 57.4066 42.4157L48.5139 45.0143L46.1363 43.6676V39.791C46.1363 39.1923 45.6445 38.707 45.0376 38.707C44.4308 38.707 43.939 39.1923 43.939 39.791V42.423L40.8883 40.6952V21.8935H42.2317C42.8386 21.8935 43.3304 21.4082 43.3304 20.8095C43.3304 20.2109 42.8386 19.7256 42.2317 19.7256H40.8883V14.6651H42.2317C42.8386 14.6651 43.3304 14.1798 43.3304 13.5811C43.3304 12.9825 42.8386 12.4971 42.2317 12.4971H40.8883V7.43665H42.2317C42.8386 7.43665 43.3304 6.95131 43.3304 6.35266C43.3304 5.75402 42.8386 5.26868 42.2317 5.26868H40.8883V2.27327C40.8883 1.2604 40.0532 0.436279 39.0265 0.436279H35.9741C34.9475 0.436279 34.1123 1.26025 34.1123 2.27327V5.26868H32.7686C32.1617 5.26868 31.6699 5.75402 31.6699 6.35266C31.6699 6.95131 32.1617 7.43665 32.7686 7.43665H34.112V12.4971H32.7686C32.1617 12.4971 31.6699 12.9825 31.6699 13.5811C31.6699 14.1798 32.1617 14.6651 32.7686 14.6651H34.112V19.7256H32.7686C32.1617 19.7256 31.6699 20.2109 31.6699 20.8095C31.6699 21.4082 32.1617 21.8935 32.7686 21.8935H34.112V40.697L31.0613 42.4251V29.6028C31.0613 25.8681 27.9819 22.8297 24.1967 22.8297H22.7328C10.1978 22.8295 0 32.8915 0 45.2593V66.7906C0 70.5252 3.07939 73.5636 6.86455 73.5636H24.1966C27.9817 73.5636 31.0611 70.5252 31.0611 66.7906V65.2257C31.0611 64.6271 30.5694 64.1417 29.9625 64.1417C29.3556 64.1417 28.8639 64.6271 28.8639 65.2257V66.7906C28.8639 69.3298 26.7702 71.3956 24.1966 71.3956H6.86455C4.29097 71.3955 2.19727 69.3297 2.19727 66.7904V45.2593C2.19727 34.087 11.4095 24.9976 22.7328 24.9976H24.1967C26.7703 24.9976 28.864 27.0636 28.864 29.6028V43.6696L26.4926 45.0129L17.6106 42.4162C16.7427 42.1624 15.8271 42.2575 15.0319 42.6835C14.2367 43.1094 13.6572 43.8154 13.4001 44.6715C13.1432 45.5276 13.2393 46.431 13.6711 47.2157C14.1029 48.0003 14.8185 48.5721 15.686 48.8256L18.3728 49.611L7.58335 55.7222C6.79849 56.1668 6.23613 56.8864 5.99971 57.7484C5.76343 58.6104 5.88149 59.5115 6.33237 60.2859C7.2627 61.8839 9.33765 62.4371 10.9563 61.5199L17.3013 57.9262L16.9015 59.9733C16.5479 61.7833 17.7527 63.5396 19.587 63.8885C20.4757 64.0576 21.3781 63.8751 22.1276 63.3746C22.8772 62.8741 23.3843 62.1154 23.5556 61.2387L25.0614 53.5314L28.8639 51.3778V60.5013C28.8639 61.0999 29.3556 61.5853 29.9625 61.5853C30.5694 61.5853 31.0611 61.0999 31.0611 60.5013V50.1335L37.5 46.4867L43.9387 50.1335V66.7904C43.9387 70.5251 47.0181 73.5634 50.8033 73.5634H53.892C54.4989 73.5634 54.9907 73.0781 54.9907 72.4795C54.9907 71.8808 54.4989 71.3955 53.892 71.3955H50.8033C48.2297 71.3955 46.136 69.3297 46.136 66.7904V51.378L49.9567 53.5421L51.4611 61.2393C51.6324 62.116 52.1395 62.8745 52.8891 63.375C53.4562 63.7537 54.1107 63.9502 54.7808 63.9502C54.9961 63.9502 55.213 63.9299 55.4292 63.8888C56.318 63.7198 57.0867 63.2193 57.5938 62.4798C58.1011 61.7401 58.286 60.8499 58.1145 59.9729ZM36.3092 2.60439H38.6908V5.26883H36.3092V2.60439ZM36.3092 7.43665H38.6908V12.4971H36.3092V7.43665ZM36.3092 14.6651H38.6908V19.7256H36.3092V14.6651ZM56.7299 54.8789C56.3571 54.6677 55.8939 54.6906 55.5445 54.9368C55.1947 55.1833 55.0228 55.6082 55.1042 56.0244L55.957 60.3836C56.0172 60.6918 55.9523 61.0047 55.7741 61.2647C55.5958 61.5246 55.3257 61.7006 55.0132 61.76C54.7011 61.8197 54.3841 61.7552 54.1204 61.5793C53.857 61.4034 53.6788 61.1369 53.6186 60.8288L52.0589 52.8475C51.9732 52.4084 51.6987 52.0289 51.3053 51.806L38.2749 44.4257C38.0358 44.2904 37.7679 44.2226 37.4999 44.2226C37.2319 44.2226 36.964 44.2904 36.7252 44.4257L23.7135 51.7952C23.3205 52.0176 23.0458 52.3968 22.9597 52.8367L21.3983 60.8284C21.3381 61.1366 21.1598 61.4033 20.8963 61.5792C20.6326 61.7551 20.3153 61.8194 20.0032 61.7599C19.3585 61.6372 18.9349 61.0199 19.0592 60.3836L19.7235 56.9815C19.8401 56.3846 19.6009 55.7943 19.0995 55.4411C18.5977 55.0877 17.9544 55.0566 17.4204 55.3592L9.86235 59.6399C9.29312 59.962 8.56436 59.7676 8.2374 59.2061C8.07905 58.9341 8.0376 58.6175 8.12051 58.3145C8.20356 58.0116 8.40117 57.7588 8.67715 57.6026L20.7643 50.7563C21.3051 50.4499 21.6078 49.857 21.5353 49.2458C21.4627 48.6345 21.0294 48.1267 20.4315 47.9519L16.31 46.7473C15.6807 46.5633 15.3204 45.9085 15.507 45.2875C15.5972 44.9867 15.8008 44.7387 16.0803 44.589C16.3597 44.4392 16.6816 44.4059 16.9865 44.495L26.1312 47.1686C26.5375 47.2877 26.9814 47.2362 27.3488 47.0281L35.5279 42.3951C36.01 42.1221 36.3095 41.6118 36.3095 41.0633V21.8935H38.6911V41.0615C38.6911 41.6099 38.9905 42.1201 39.4727 42.3934L47.6582 47.0297C48.0255 47.2375 48.4689 47.2887 48.875 47.1702L58.0308 44.4946C58.6591 44.3106 59.3238 44.6662 59.5104 45.2873C59.6007 45.5881 59.567 45.9057 59.4152 46.1814C59.2635 46.4572 59.0121 46.6581 58.7071 46.7473L54.5754 47.955C53.9773 48.1297 53.544 48.6376 53.4715 49.2488C53.399 49.86 53.7016 50.453 54.2426 50.7594L64.107 56.3467C64.383 56.5031 64.5807 56.756 64.6638 57.059C64.7468 57.3621 64.7054 57.6789 64.547 57.9512C64.2201 58.5133 63.491 58.7077 62.921 58.3852L56.7299 54.8789Z" fill="#2F73F2"/>
</g>
<defs>
<clipPath id="clip0_3_709">
<rect width="75" height="74" fill="white"/>
</clipPath>
</defs>
</svg>
