<svg width="88" height="88" viewBox="0 0 88 88" fill="none" xmlns="http://www.w3.org/2000/svg">
<path d="M44.1194 27.0646C44.1273 27.0648 44.1352 27.0648 44.1431 27.0648C44.8442 27.0648 45.419 26.5027 45.4315 25.7989L45.6653 12.7476C45.678 12.0357 45.1111 11.4482 44.3996 11.4355C44.3915 11.4353 44.3838 11.4353 44.3758 11.4353C43.6748 11.4353 43.1 11.9975 43.0875 12.7012L42.8537 25.7525C42.841 26.4642 43.4078 27.0517 44.1194 27.0646Z" fill="#2F73F2"/>
<path d="M30.5054 27.9699C30.6845 28.5117 31.1883 28.8549 31.7294 28.8549C31.8633 28.8549 31.9996 28.8339 32.134 28.7896C32.8099 28.5661 33.1769 27.8372 32.9538 27.1611L29.3467 16.2396C29.1231 15.5635 28.3948 15.1962 27.7182 15.4198C27.0422 15.6432 26.6752 16.3721 26.8983 17.0483L30.5054 27.9699Z" fill="#2F73F2"/>
<path d="M19.1025 33.6031C19.3472 33.9934 19.7666 34.2072 20.1954 34.2072C20.4295 34.2072 20.6665 34.1435 20.8793 34.0099C21.4824 33.6315 21.6644 32.8358 21.286 32.2329L14.8293 21.9446C14.4509 21.3412 13.6549 21.1597 13.0523 21.538C12.4492 21.9165 12.2672 22.7121 12.6456 23.315L19.1025 33.6031Z" fill="#2F73F2"/>
<path d="M9.37956 44.2845C9.68584 44.2845 9.9935 44.1757 10.2398 43.955C10.7697 43.4796 10.814 42.6648 10.3386 42.1347L2.24864 33.1144C1.77323 32.5845 0.958717 32.5398 0.42831 33.0155C-0.10158 33.4909 -0.145924 34.3058 0.329482 34.8359L8.41947 43.8562C8.67401 44.14 9.02584 44.2845 9.37956 44.2845Z" fill="#2F73F2"/>
<path d="M55.8482 28.698C55.9995 28.7557 56.1548 28.783 56.3078 28.783C56.8269 28.783 57.316 28.4673 57.5123 27.9534L61.6279 17.1741C61.8819 16.5091 61.5484 15.764 60.8833 15.51C60.2186 15.256 59.4732 15.5892 59.2192 16.2546L55.1037 27.0339C54.8498 27.6989 55.1831 28.4439 55.8482 28.698Z" fill="#2F73F2"/>
<path d="M66.8895 33.6767C67.1132 33.831 67.3685 33.9053 67.6211 33.9053C68.0304 33.9053 68.4327 33.7109 68.683 33.3489L75.5898 23.3526C75.9945 22.7669 75.8476 21.9641 75.262 21.5591C74.6757 21.1545 73.8732 21.3013 73.4685 21.8869L66.5617 31.8831C66.1569 32.4691 66.3037 33.2719 66.8895 33.6767Z" fill="#2F73F2"/>
<path d="M86.7113 32.3793C86.3389 32.3793 86.0034 32.5376 85.7681 32.7904L77.4119 41.3656C76.9148 41.8755 76.9255 42.6916 77.4354 43.1883C77.686 43.4326 78.0107 43.5542 78.3348 43.5542C78.6703 43.5542 79.0055 43.424 79.2581 43.1648L87.6345 34.569C87.8691 34.3283 88.0004 34.0033 88.0004 33.6673C88.0004 32.9552 87.4232 32.3793 86.7113 32.3793Z" fill="#2F73F2"/>
<path d="M72.6809 43.7688C72.131 43.3171 71.3186 43.3962 70.8666 43.9465C70.4145 44.4965 70.4941 45.3088 71.0443 45.7608C74.2623 48.4049 77.0692 51.4973 79.3864 54.9523C79.4306 55.018 79.4306 55.1063 79.3866 55.1717C74.573 62.3478 67.8031 67.7624 60.0441 70.8989C64.0692 66.795 66.4489 61.2065 66.4489 55.2636C66.4489 48.9431 63.7884 43.0876 59.3698 38.9568C61.7876 39.8863 64.1236 41.0382 66.3459 42.4068C66.9518 42.7807 67.746 42.5916 68.1193 41.9852C68.4928 41.3792 68.3039 40.5851 67.6977 40.2118C60.6295 35.8588 52.4838 33.5579 44.1415 33.5579C29.114 33.5579 15.1382 41.019 6.75564 53.5162C6.12572 54.4553 6.12572 55.6687 6.75564 56.6077C8.41561 59.0827 10.3318 61.4042 12.4511 63.5078C12.7025 63.7572 13.0308 63.8819 13.3591 63.8819C13.6906 63.8819 14.0218 63.7549 14.274 63.5009C14.7755 62.9956 14.7724 62.1793 14.2671 61.6778C12.2689 59.6944 10.462 57.5054 8.89669 55.1715C8.85269 55.106 8.85269 55.0182 8.89669 54.9525C13.8505 47.5669 20.8762 42.0475 28.9189 38.9563C24.4985 43.0885 21.8342 48.9455 21.8342 55.2638C21.8342 61.215 24.2245 66.8174 28.2656 70.9259C24.8438 69.5423 21.5941 67.7005 18.5813 65.4214C18.0138 64.9921 17.2051 65.104 16.7756 65.6718C16.3461 66.2396 16.4582 67.048 17.026 67.4776C24.885 73.4226 34.2611 76.5648 44.1414 76.5648C59.1694 76.5648 73.1454 69.1044 81.5276 56.6078C82.1572 55.6689 82.1572 54.4558 81.5274 53.5167C79.07 49.8521 76.0934 46.5728 72.6809 43.7688ZM35.8907 73.189C28.9155 69.9715 24.4127 62.9457 24.4127 55.2636C24.4127 46.8744 29.7195 39.4021 37.6265 36.637C39.7635 36.306 41.9407 36.136 44.1417 36.136C46.3328 36.136 48.5092 36.3048 50.6534 36.6363C58.5646 39.4021 63.8709 46.8684 63.8709 55.2636C63.8709 62.9406 59.3826 69.9496 52.4235 73.1726C49.724 73.7085 46.9526 73.9865 44.1417 73.9865C41.3395 73.9865 38.5809 73.7163 35.8907 73.189Z" fill="#2F73F2"/>
<path d="M53.127 60.7083C54.1907 59.0191 54.7529 57.0665 54.7529 55.0615C54.7529 49.2109 49.9932 44.4512 44.1426 44.4512C38.292 44.4512 33.5322 49.2109 33.5322 55.0615C33.5322 60.9122 38.292 65.6719 44.1426 65.6719C45.4017 65.6719 46.6346 65.4533 47.8068 65.022C48.4749 64.7761 48.8172 64.0353 48.5715 63.3671C48.3257 62.6991 47.5856 62.3571 46.9165 62.6024C46.0303 62.9286 45.0968 63.0938 44.1424 63.0938C39.7134 63.0938 36.1102 59.4904 36.1102 55.0615C36.1102 50.6327 39.7135 47.0293 44.1424 47.0293C48.5715 47.0293 52.1746 50.6327 52.1746 55.0615C52.1746 56.5797 51.7494 58.0575 50.9452 59.3347C50.5659 59.9371 50.7467 60.7331 51.3493 61.1124C51.9517 61.4915 52.7477 61.3111 53.127 60.7083Z" fill="#2F73F2"/>
</svg>
