<svg width="49" height="47" viewBox="0 0 49 47" fill="none" xmlns="http://www.w3.org/2000/svg">
<path d="M46.9169 0.226562H12.6902C11.5403 0.227903 10.6085 1.15971 10.6072 2.30958V11.7501L9.04204 9.40245C8.32563 8.32179 6.88484 7.99756 5.77461 8.66726L2.55455 10.6032C1.50003 11.222 0.726459 12.2254 0.396394 13.4027C-0.778268 17.6798 0.0933239 25.0488 10.9095 35.8666C19.511 44.4592 25.9242 46.7734 30.3443 46.7734C31.3676 46.7781 32.387 46.6451 33.3749 46.378C34.5517 46.048 35.5551 45.2755 36.1751 44.2224L38.1086 40.999C38.7756 39.8896 38.4517 38.4518 37.3734 37.7355L29.663 32.5958C28.6053 31.8962 27.1876 32.1262 26.4053 33.1243L24.1605 36.0103C23.9259 36.3191 23.5003 36.4091 23.1607 36.2218L22.7334 35.9865C21.3276 35.2203 19.5779 34.2662 16.0442 30.7325C15.6618 30.3501 15.3155 29.9924 14.9904 29.6501H46.9169C48.0639 29.6509 48.9954 28.7238 48.9999 27.5768V2.30958C48.9985 1.15971 48.0667 0.227903 46.9169 0.226562ZM21.9517 37.4211L22.3667 37.649C23.4099 38.2323 24.7229 37.9616 25.4504 37.0135L27.6952 34.1275C27.9504 33.8024 28.4121 33.7275 28.757 33.9551L36.4674 39.0949C36.8177 39.3283 36.923 39.7957 36.7068 40.1568L34.7733 43.3802C34.3695 44.0726 33.7135 44.5818 32.9427 44.8015C29.0814 45.8634 22.3234 44.9649 12.0668 34.7075C1.81018 24.4501 0.915041 17.6929 1.97445 13.8348C2.19395 13.0641 2.70293 12.4082 3.39494 12.0042L6.61834 10.0699C6.97952 9.85408 7.44657 9.95929 7.68024 10.3092L12.8224 18.0196C13.0504 18.3644 12.9755 18.8265 12.65 19.0815L9.76315 21.327C8.81517 22.0543 8.54446 23.3671 9.12762 24.4099L9.35631 24.8249C10.1732 26.323 11.1885 28.1871 14.8898 31.8875C18.5912 35.588 20.4545 36.6041 21.9517 37.4211ZM47.3662 27.5769C47.3635 27.8227 47.1626 28.0199 46.917 28.018H13.5168C12.4558 26.8048 11.541 25.4713 10.7909 24.0448L10.5556 23.6159C10.368 23.2771 10.4577 22.8519 10.7664 22.6177L13.6532 20.3722C14.6516 19.5901 14.8817 18.1722 14.1817 17.1145L12.2408 14.2015V2.30958C12.2395 2.19001 12.2864 2.07495 12.3709 1.99042C12.4555 1.9059 12.5705 1.85899 12.6901 1.86033H46.9169C47.0364 1.85899 47.1515 1.9059 47.236 1.99042C47.3206 2.07495 47.3675 2.19001 47.3661 2.30958V27.5769H47.3662Z" fill="white"/>
<path d="M44.1034 4.00889L30.451 14.3627C30.0648 14.6434 29.5417 14.6434 29.1554 14.3627L15.5082 4.00889C15.1486 3.73616 14.636 3.80662 14.3634 4.16617C14.0907 4.52572 14.1611 5.03833 14.5207 5.31096L28.1697 15.6639C29.1407 16.3813 30.466 16.3813 31.4371 15.6639L45.0902 5.31096C45.263 5.18001 45.3766 4.98568 45.406 4.77087C45.4354 4.55606 45.3782 4.33838 45.247 4.16578C44.9744 3.8069 44.4626 3.73674 44.1034 4.00889Z" fill="white"/>
<path d="M22.8325 15.7324L14.4645 24.6935C14.1569 25.0235 14.175 25.5405 14.5049 25.8482C14.8349 26.1558 15.3519 26.1377 15.6596 25.8078L24.0276 16.8427C24.3041 16.5091 24.272 16.0178 23.9547 15.7228C23.6373 15.4279 23.1448 15.4321 22.8325 15.7324Z" fill="white"/>
<path d="M36.8286 15.7325C36.5209 15.4025 36.004 15.3844 35.6739 15.6921C35.3439 15.9998 35.3258 16.5167 35.6335 16.8468L43.9991 25.8078C44.3067 26.1378 44.8237 26.156 45.1537 25.8482C45.4837 25.5406 45.5019 25.0236 45.1941 24.6936L36.8286 15.7325Z" fill="white"/>
</svg>
