<svg width="44" height="37" viewBox="0 0 44 37" fill="none" xmlns="http://www.w3.org/2000/svg">
<path fill-rule="evenodd" clip-rule="evenodd" d="M36 0.9C37.4 1.5 38.6 2.3 39.7 3.4C40.8 4.5 41.6 5.8 42.2 7.2C42.8 8.6 43.1 10.1 43.1 11.6C43.1 13.1 42.8 14.6 42.2 16C41.6 17.4 40.8 18.7 39.7 19.8L24 35.9C22.6 37.3 20.4 37.3 19 35.9L3.3 19.8C1.2 17.7 0 14.7 0 11.6C0 8.5 1.2 5.6 3.3 3.4C5.4 1.2 8.3 0 11.3 0C14.3 0 17.2 1.2 19.3 3.4L21.5 5.6L23.7 3.4C24.8 2.3 26 1.5 27.4 0.9C28.8 0.3 30.2 0 31.7 0C33.2 0 34.7 0.3 36 0.9ZM15.6 12.6C14 15.1 12.8 17.6 12.8 20.3C12.8 24.3 15 28 18.2 29.5L19.3 27.9C20.6 26.4 22.7 26.4 24 27.9L24.9 28.9C28.1 27.5 30 24.1 30 20.3C30 16.5 26.3 12.6 26.3 12.6C25.9 12.2 25.6 12.4 25.6 12.9C25.6 12.9 25.8 17.4 23.5 17.4C21.2 17.4 22.3 16.2 22.3 14.6C22.3 12.5 22.3 9.5 19.7 6.9C18.7 6 18.3 5.7 18.2 5.8C17.8 6 18.5 8.6 15.6 12.6ZM25.9 8.8C25.1 7.5 23.4 6.7 22.7 6.8C22.4 6.8 22.5 7 22.7 7.2C23 7.6 23.6 8.2 23.8 9.4C24.2 11.5 27 10.7 25.8 8.7L25.9 8.8Z" fill="#2F73F2"/>
</svg>
